<?xml version="1.0" standalone="no"?>
<!DOCTYPE svg PUBLIC "-//W3C//DTD SVG 20010904//EN"
 "http://www.w3.org/TR/2001/REC-SVG-20010904/DTD/svg10.dtd">
<svg version="1.0" xmlns="http://www.w3.org/2000/svg"
 width="160.000000pt" height="160.000000pt" viewBox="0 0 160.000000 160.000000"
 preserveAspectRatio="xMidYMid meet">
<metadata>
Created by potrace 1.14, written by Peter Selinger 2001-2017
</metadata>
<g transform="translate(0.000000,160.000000) scale(0.100000,-0.100000)"
fill="#000000" stroke="none">
<path d="M145 1579 c-45 -24 -59 -40 -81 -89 -20 -46 -14 -118 14 -158 22 -30
22 -30 22 -681 l0 -651 125 0 125 0 2 308 c3 267 5 306 18 303 33 -9 288 -9
335 0 28 5 64 12 80 15 17 2 50 12 75 20 45 16 60 21 70 22 3 0 19 6 35 12 17
7 84 13 150 16 163 5 237 -10 403 -82 l32 -14 0 409 0 410 -53 19 c-46 18 -98
33 -162 49 -11 3 -83 6 -160 8 -148 3 -235 -8 -341 -44 -104 -36 -177 -48
-279 -46 -162 3 -149 -2 -162 55 -15 64 -47 104 -98 124 -55 22 -103 20 -150
-5z"/>
</g>
</svg>
